<svg width="300" height="300" viewBox="0 0 300 300" fill="none" xmlns="http://www.w3.org/2000/svg">
<g clip-path="url(#clip0_0_1)">
<path d="M169.455 35.1834C174.704 29.5989 184.026 31.7522 186.293 39.0731L205.032 99.5651C205.863 102.247 207.783 104.456 210.323 105.652L267.612 132.642C274.545 135.908 275.378 145.439 269.116 149.858L217.375 186.373C215.081 187.992 213.574 190.5 213.221 193.286L205.256 256.111C204.292 263.714 195.484 267.451 189.347 262.862L138.63 224.937C136.382 223.256 133.53 222.597 130.772 223.122L68.5605 234.961C61.0315 236.394 54.7555 229.172 57.2239 221.916L77.6201 161.963C78.5243 159.305 78.2696 156.389 76.9181 153.928L46.4342 98.4202C42.7449 91.7024 47.6736 83.502 55.337 83.6075L118.659 84.4787C121.466 84.5173 124.16 83.3741 126.083 81.3283L169.455 35.1834Z" fill="#FF9900"/>
</g>
<defs>
<clipPath id="clip0_0_1">
<rect width="300" height="300" fill="white"/>
</clipPath>
</defs>
</svg>
